HIERARCHY
ROOT RootJoint
{
    OFFSET   0.000000   0.000000   0.000000
    CHANNELS 6 Xposition Yposition Zposition Xrotation Yrotation Zrotation
    JOINT pelvis_lowerback
    {
        OFFSET   0.000000   0.093605   0.000000
        CHANNELS 3 Xrotation Yrotation Zrotation
        JOINT lowerback_torso
        {
            OFFSET   0.000000   0.100000   0.000000
            CHANNELS 3 Xrotation Yrotation Zrotation
            JOINT torso_head
            {
                OFFSET   0.000000   0.282350   0.000000
                CHANNELS 3 Xrotation Yrotation Zrotation
                End Site
                {
                    OFFSET   0.000000   0.192650   0.000000
                }
            }
            JOINT rTorso_Clavicle
            {
                OFFSET  -0.001000   0.157500   0.000000
                CHANNELS 3 Xrotation Yrotation Zrotation
                JOINT rShoulder
                {
                    OFFSET  -0.117647   0.000000   0.000000
                    CHANNELS 3 Xrotation Yrotation Zrotation
                    JOINT rElbow
                    {
                        OFFSET  -0.245000   0.000000   0.000000
                        CHANNELS 3 Xrotation Yrotation Zrotation
                        JOINT rWrist
                        {
                            OFFSET  -0.240000   0.000000   0.000000
                            CHANNELS 3 Xrotation Yrotation Zrotation
                            End Site
                            {
                                OFFSET  -0.116353  -0.002500   0.000000
                            }
                        }
                    }
                }
            }
            JOINT lTorso_Clavicle
            {
                OFFSET   0.001000   0.157500   0.000000
                CHANNELS 3 Xrotation Yrotation Zrotation
                JOINT lShoulder
                {
                    OFFSET   0.117647   0.000000   0.000000
                    CHANNELS 3 Xrotation Yrotation Zrotation
                    JOINT lElbow
                    {
                        OFFSET   0.245000   0.000000   0.000000
                        CHANNELS 3 Xrotation Yrotation Zrotation
                        JOINT lWrist
                        {
                            OFFSET   0.240000   0.000000   0.000000
                            CHANNELS 3 Xrotation Yrotation Zrotation
                            End Site
                            {
                                OFFSET   0.116353  -0.002500   0.000000
                            }
                        }
                    }
                }
            }
        }
    }
    JOINT rHip
    {
        OFFSET  -0.100000  -0.051395   0.000000
        CHANNELS 3 Xrotation Yrotation Zrotation
        JOINT rKnee
        {
            OFFSET   0.000000  -0.410000   0.000000
            CHANNELS 3 Xrotation Yrotation Zrotation
            JOINT rAnkle
            {
                OFFSET   0.000000  -0.390000   0.000000
                CHANNELS 3 Xrotation Yrotation Zrotation
                JOINT rToeJoint
                {
                    OFFSET   0.000000  -0.050000   0.130000
                    CHANNELS 3 Xrotation Yrotation Zrotation
                    End Site
                    {
                        OFFSET  -0.010000   0.002000   0.060000
                    }
                }
            }
        }
    }
    JOINT lHip
    {
        OFFSET   0.100000  -0.051395   0.000000
        CHANNELS 3 Xrotation Yrotation Zrotation
        JOINT lKnee
        {
            OFFSET   0.000000  -0.410000   0.000000
            CHANNELS 3 Xrotation Yrotation Zrotation
            JOINT lAnkle
            {
                OFFSET   0.000000  -0.390000   0.000000
                CHANNELS 3 Xrotation Yrotation Zrotation
                JOINT lToeJoint
                {
                    OFFSET   0.000000  -0.050000   0.130000
                    CHANNELS 3 Xrotation Yrotation Zrotation
                    End Site
                    {
                        OFFSET   0.010000   0.002000   0.060000
                    }
                }
            }
        }
    }
}
MOTION
Frames: 14
Frame Time:   0.008333
 -2.490754   0.906224   3.769533 120.677695  84.930846 -122.815162  65.115947   0.294092   2.088062  12.764303  -1.976693   1.205537   8.445136  -3.105716  -4.086955  -7.245814  30.551219   1.687689 -16.625562   8.657085  26.546824  -0.000358  38.689692   0.001509  -4.796273   2.827199  -4.895831  -7.101678 -28.499553  -1.150029 -14.333149  -5.329645 -26.572089   0.000229 -31.835592   0.000245  -4.806133  -3.402544   8.789208 -27.623917  -0.188032  -3.046628  29.169005  -0.000302  -0.001192   8.947859   0.925914   4.669022 -22.620644   0.000020   0.000062 -18.030694   8.233988   2.472097  25.206183   0.000189  -0.000692 -11.676338   9.892125   1.524435  -0.940430   0.000003   0.000019
 -2.490355   0.907055   3.769666 120.405214  84.791240 -122.548328  64.860503   0.271287   2.075045  12.863806  -1.948208   1.201924   8.453970  -3.109168  -4.076839  -7.241761  30.636588   1.786159 -16.586632   8.855302  26.489584  -0.000323  38.660304   0.001263  -4.705989   2.836224  -5.033183  -7.058443 -28.542926  -1.173887 -14.234681  -5.517326 -26.522533   0.000350 -31.971099   0.000404  -4.713168  -3.417286   8.880632 -27.448099  -0.231608  -3.057061  28.637519  -0.000244  -0.001074   9.069047   0.950523   4.689765 -22.486755  -0.000023   0.000106 -17.875175   8.185322   2.438648  24.653702   0.000259  -0.000561 -11.391483   9.894040   1.435324  -0.939737   0.000002   0.000015
 -2.489920   0.907916   3.769812 119.991097  84.646489 -122.147561  64.575242   0.248160   2.061403  12.952390  -1.918429   1.198554   8.465863  -3.113125  -4.065564  -7.226713  30.715920   1.891722 -16.543627   9.042407  26.455981  -0.000286  38.638235   0.001046  -4.615645   2.872512  -5.121836  -7.007744 -28.576189  -1.206860 -14.135515  -5.689374 -26.490788   0.000436 -32.100345   0.000496  -4.617946  -3.452947   8.932865 -27.266537  -0.273533  -3.048662  28.081240  -0.000159  -0.000991   9.181847   0.958407   4.652456 -22.289208   0.000013   0.000181 -17.720270   8.142033   2.408679  24.081043   0.000300  -0.000436 -11.112888   9.899430   1.421273  -0.925571   0.000002   0.000012
 -2.489461   0.908730   3.769984 119.581410  84.510685 -121.750727  64.280836   0.225283   2.045221  13.025909  -1.889619   1.195622   8.474895  -3.116887  -4.054408  -7.205301  30.787439   1.999278 -16.498677   9.214654  26.435067  -0.000251  38.617837   0.000863  -4.528995   2.911192  -5.178691  -6.954883 -28.602727  -1.243859 -14.038897  -5.846607 -26.468407   0.000467 -32.220385   0.000521  -4.526629  -3.487388   8.960714 -27.088409  -0.318751  -3.041317  27.537949  -0.000085  -0.000871   9.307860   0.974075   4.661678 -22.155026  -0.000020   0.000184 -17.565151   8.101567   2.383128  23.526831   0.000342  -0.000326 -10.845167   9.907307   1.404232  -0.914238   0.000001   0.000010
 -2.488999   0.909495   3.770168 119.222988  84.384012 -121.407445  63.986579   0.203642   2.033413  13.084178  -1.861965   1.194091   8.480538  -3.120236  -4.044046  -7.181671  30.851639   2.103106 -16.454129   9.373310  26.419457  -0.000217  38.598296   0.000710  -4.446313   2.946088  -5.219909  -6.902620 -28.624191  -1.281605 -13.946490  -5.990822 -26.450779   0.000454 -32.331729   0.000505  -4.439918  -3.516751   8.978482 -26.915032  -0.356791  -3.024822  27.029609  -0.000018  -0.000803   9.411989   0.980475   4.621377 -21.978308   0.000013   0.000226 -17.412485   8.062119   2.363723  22.997989   0.000374  -0.000241 -10.590655   9.914821   1.385656  -0.905172   0.000001   0.000008
 -2.488535   0.910195   3.770373 118.918966  84.270380 -121.115948  63.696386   0.182167   2.020916  13.129855  -1.836278   1.193426   8.484041  -3.123278  -4.034028  -7.157304  30.908728   2.201991 -16.410823   9.519303  26.406808  -0.000183  38.579561   0.000581  -4.367474   2.976635  -5.254301  -6.852267 -28.641336  -1.317237 -13.858956  -6.123557 -26.434850   0.000407 -32.435084   0.000461  -4.357339  -3.541855   8.992239 -26.748222  -0.397209  -3.013208  26.551816   0.000031  -0.000704   9.525213   0.996223   4.630967 -21.872130  -0.000015   0.000209 -17.260888   8.025747   2.346848  22.500984   0.000399  -0.000174 -10.352905   9.922436   1.365202  -0.897919   0.000001   0.000006
 -2.488082   0.910847   3.770583 118.653313  84.166652 -120.863880  63.412552   0.161829   2.012362  13.163032  -1.812118   1.193735   8.485584  -3.125980  -4.024825  -7.134028  30.959827   2.293614 -16.369790   9.654292  26.394328  -0.000151  38.561725   0.000473  -4.292101   3.004121  -5.286923  -6.804649 -28.655097  -1.350199 -13.776658  -6.246043 -26.419529   0.000341 -32.531179   0.000403  -4.278671  -3.563779   9.006811 -26.587794  -0.432068  -2.993815  26.110426   0.000080  -0.000638   9.615272   1.001049   4.591568 -21.725133   0.000010   0.000221 -17.113092   7.991105   2.334565  22.031588   0.000415  -0.000121 -10.128994   9.930054   1.344035  -0.892116   0.000000   0.000005
 -2.487509   0.911615   3.770803 118.394111  84.076831 -120.593418  63.069784   0.093847   1.978248  13.272233  -1.779027   1.190230   8.508373  -3.118955  -4.004354  -7.089985  30.993411   2.369884 -16.340501   9.808639  26.472166  -0.000117  38.566056   0.000376  -4.205345   3.035582  -5.421262  -6.681709 -28.633800  -1.335400 -13.631104  -6.408059 -26.427523   0.000483 -32.718250   0.000633  -4.199212  -3.570736   9.108140 -26.363050  -0.494393  -3.002496  25.579682   0.000175  -0.000402   9.714585   1.022137   4.607825 -21.569477  -0.000049   0.000171 -16.877234   7.963956   2.289980  21.436154   0.000469  -0.000025  -9.850656   9.947311   1.321184  -0.887474   0.000000   0.000004
 -2.486914   0.912386   3.771044 118.187879  83.984673 -120.381695  62.709500   0.026169   1.950659  13.374859  -1.747068   1.189649   8.532405  -3.112696  -3.984889  -7.035186  31.021741   2.457310 -16.305433   9.950709  26.565860  -0.000087  38.572026   0.000299  -4.121374   3.075345  -5.517476  -6.554924 -28.607477  -1.334027 -13.487262  -6.557081 -26.452150   0.000588 -32.896549   0.000760  -4.115678  -3.605444   9.162748 -26.136717  -0.544858  -3.000863  25.054463   0.000237  -0.000307   9.811216   1.039722   4.575270 -21.419164  -0.000035   0.000177 -16.640467   7.933839   2.252851  20.838121   0.000518   0.000028  -9.563873   9.960312   1.294907  -0.893652   0.000000   0.000003
 -2.486317   0.913118   3.771300 118.043848  83.899860 -120.233527  62.349226  -0.039179   1.925639  13.464423  -1.717644   1.190834   8.552208  -3.106770  -3.966401  -6.975596  31.044433   2.548616 -16.267548  10.079566  26.663866  -0.000066  38.576776   0.000238  -4.041541   3.110029  -5.583655  -6.430689 -28.579170  -1.341249 -13.348938  -6.693215 -26.483855   0.000631 -33.062483   0.000797  -4.035419  -3.640512   9.190621 -25.914707  -0.592113  -2.996757  24.555457   0.000278  -0.000250   9.908809   1.055803   4.545038 -21.285957  -0.000026   0.000178 -16.408695   7.903557   2.220936  20.267590   0.000553   0.000056  -9.282551   9.970875   1.265947  -0.912287   0.000000   0.000003
 -2.485733   0.913796   3.771552 117.924778  83.827699 -120.106865  61.995641  -0.102293   1.900347  13.541066  -1.691757   1.191045   8.568189  -3.101136  -3.949318  -6.914977  31.061621   2.638439 -16.229005  10.196466  26.760169  -0.000050  38.580162   0.000191  -3.965771   3.137324  -5.633480  -6.311391 -28.550070  -1.352969 -13.217489  -6.818125 -26.517979   0.000618 -33.216684   0.000772  -3.959231  -3.670921   9.205249 -25.700007  -0.642559  -2.989041  24.088511   0.000338  -0.000176  10.005914   1.052644   4.479592 -21.164229   0.000017   0.000160 -16.181600   7.877054   2.189078  19.731632   0.000571   0.000081  -9.012506   9.982335   1.236273  -0.941202   0.000000   0.000002
 -2.485171   0.914428   3.771805 117.806729  83.768233 -119.982838  61.652828  -0.160883   1.875515  13.605321  -1.667490   1.190240   8.581065  -3.095701  -3.933553  -6.856170  31.075037   2.723977 -16.191584  10.303538  26.851659  -0.000039  38.582619   0.000153  -3.893666   3.159121  -5.676070  -6.198285 -28.520385  -1.366016 -13.093486  -6.932921 -26.551375   0.000565 -33.359979   0.000712  -3.886940  -3.696656   9.215061 -25.494747  -0.693706  -2.981464  23.655345   0.000372  -0.000086  10.096011   1.056957   4.455164 -21.052710   0.000011   0.000129 -15.961728   7.854262   2.163075  19.230510   0.000578   0.000106  -8.755122   9.995262   1.205681  -0.977470   0.000000   0.000002
 -2.484633   0.915012   3.772060 117.706478  83.719018 -119.876620  61.321352  -0.216534   1.851775  13.658366  -1.645274   1.189476   8.591776  -3.090544  -3.918797  -6.800163  31.085135   2.804237 -16.155898  10.401896  26.937280  -0.000031  38.584459   0.000123  -3.824872   3.177319  -5.715934  -6.091813 -28.490564  -1.378747 -12.977016  -7.038756 -26.582686   0.000485 -33.493274   0.000631  -3.818128  -3.718854   9.223678 -25.297784  -0.741415  -2.972451  23.252683   0.000391  -0.000014  10.182189   1.062698   4.429940 -20.952393   0.000007   0.000103 -15.749652   7.832174   2.140838  18.762661   0.000578   0.000131  -8.511007  10.006877   1.174170  -1.017882   0.000000   0.000002
 -2.484018   0.915640   3.772303 117.479918  83.678036 -119.649824  60.944920  -0.277627   1.816291  13.751772  -1.614529   1.187144   8.641801  -3.093458  -3.871256  -6.744113  31.067523   2.876507 -16.110973  10.506866  27.077934  -0.000029  38.572993   0.000093  -3.745712   3.223938  -5.817679  -5.943792 -28.443299  -1.382035 -12.785367  -7.189748 -26.624573   0.000607 -33.687947   0.000820  -3.729071  -3.723397   9.319446 -25.059877  -0.808257  -2.957216  22.778159   0.000447   0.000177  10.269373   1.095450   4.396386 -20.801625  -0.000001   0.000083 -15.487214   7.800550   2.117080  18.212490   0.000619   0.000284  -8.260104  10.047404   1.146328  -1.019728   0.000000   0.000002
